<svg xmlns="http://www.w3.org/2000/svg" width="34" height="34" viewBox="0 0 34 34">
  <g id="Stockholm-icons-_-Shopping-_-Dollar" data-name="Stockholm-icons-/-Shopping-/-Dollar" transform="translate(-1035.74 -6969.741)">
    <rect id="bound" width="34" height="34" transform="translate(1035.741 6969.741)" fill="none"/>
    <path id="Rectangle" d="M1060.4,6974h0a1.4,1.4,0,0,1,1.4,1.4v2.79a1.394,1.394,0,0,1-1.4,1.395h0a1.394,1.394,0,0,1-1.4-1.395v-2.79A1.4,1.4,0,0,1,1060.4,6974Z" transform="translate(-6.957 -1.21)" opacity="0.3" style="isolation: isolate"/>
    <path id="Rectangle-Copy-3" d="M1060.4,7002h0a1.4,1.4,0,0,1,1.4,1.4v4.186a1.4,1.4,0,0,1-1.4,1.4h0a1.4,1.4,0,0,1-1.4-1.4V7003.4A1.4,1.4,0,0,1,1060.4,7002Z" transform="translate(-6.957 -9.679)" opacity="0.3" style="isolation: isolate"/>
    <path id="Combined-Shape" d="M1062.021,6983.767a4.093,4.093,0,0,0-1.524-1.18,4.293,4.293,0,0,0-1.816-.437,5.43,5.43,0,0,0-.915.079,2.377,2.377,0,0,0-.835.306,2.058,2.058,0,0,0-.623.583,1.549,1.549,0,0,0-.252.914,1.477,1.477,0,0,0,.2.8,1.762,1.762,0,0,0,.583.556,5.19,5.19,0,0,0,.914.438q.53.2,1.193.41.954.318,1.988.7a7.467,7.467,0,0,1,1.882,1.021,5.366,5.366,0,0,1,1.4,1.577,4.541,4.541,0,0,1,.557,2.346,6.129,6.129,0,0,1-.6,2.8,5.579,5.579,0,0,1-1.6,1.948,6.885,6.885,0,0,1-2.306,1.14,9.708,9.708,0,0,1-2.677.371,11.067,11.067,0,0,1-3.9-.7,8.269,8.269,0,0,1-3.128-2l2.969-3.022a5.473,5.473,0,0,0,1.816,1.418,4.918,4.918,0,0,0,2.24.57,4.532,4.532,0,0,0,.981-.106,2.435,2.435,0,0,0,.835-.344,1.726,1.726,0,0,0,.57-.637,2,2,0,0,0,.212-.954,1.513,1.513,0,0,0-.265-.9,2.586,2.586,0,0,0-.755-.676,6.1,6.1,0,0,0-1.219-.557q-.729-.252-1.657-.543a16.091,16.091,0,0,1-1.763-.689,5.922,5.922,0,0,1-1.537-1.021,4.726,4.726,0,0,1-1.087-1.511,5.118,5.118,0,0,1-.411-2.16,5.312,5.312,0,0,1,.636-2.678,5.521,5.521,0,0,1,1.67-1.828,7.161,7.161,0,0,1,2.333-1.047,10.537,10.537,0,0,1,2.624-.332,9.744,9.744,0,0,1,3.247.583,8.379,8.379,0,0,1,2.9,1.723Z" transform="translate(-4.407 -2.544)"/>
  </g>
</svg>
