<svg xmlns="http://www.w3.org/2000/svg" width="29.117" height="29.117" viewBox="0 0 29.117 29.117">
  <g id="Stockholm-icons-_-Files-_-Selected-file" data-name="Stockholm-icons-/-Files-/-Selected-file" transform="translate(-96 -7660)">
    <path id="Shape" d="M96,7660h29.117v29.117H96Z" fill="none"/>
    <path fill="#fff" id="Combined-Shape-Copy" d="M104.253,7662H112.6a1.817,1.817,0,0,1,1.175.431l5.779,4.888a1.823,1.823,0,0,1,.645,1.391v15.23c0,2.172-.025,2.325-2.253,2.325H104.253c-2.228,0-2.253-.153-2.253-2.325v-19.613C102,7662.153,102.025,7662,104.253,7662Zm3.813,13.345a1.213,1.213,0,0,0,0,2.427h8.493a1.213,1.213,0,0,0,0-2.427Zm0,4.854a1.213,1.213,0,0,0,0,2.427h3.64a1.213,1.213,0,0,0,0-2.427Z" transform="translate(-2.36 -0.786)" opacity="0.3" style="isolation: isolate"/>
    <path fill="#b3b3b3" id="Combined-Shape" d="M108.253,7666h9.56a1.821,1.821,0,0,1,1.175.43l5.779,4.889a1.819,1.819,0,0,1,.645,1.389v15.231c0,2.173-.025,2.326-2.253,2.326H108.253c-2.228,0-2.253-.153-2.253-2.326v-19.614C106,7666.153,106.025,7666,108.253,7666Zm1.387,10.918a1.213,1.213,0,0,0,0,2.427h8.493a1.213,1.213,0,0,0,0-2.427Zm0,4.854a1.213,1.213,0,1,0,0,2.426h3.64a1.213,1.213,0,1,0,0-2.426Z" transform="translate(-3.934 -2.361)"/>
  </g>
</svg>
