<svg xmlns="http://www.w3.org/2000/svg" width="28.152" height="28.152" viewBox="0 0 28.152 28.152">
  <path id="Path_410" data-name="Path 410" d="M-1939.7,546.305l-1.066-.194a1.255,1.255,0,0,1-.938-.772,1.248,1.248,0,0,1,.121-1.2l.616-.89a2.263,2.263,0,0,0-.26-2.888l-1.479-1.478a2.261,2.261,0,0,0-2.888-.26l-.89.616a1.257,1.257,0,0,1-1.221.112,1.248,1.248,0,0,1-.75-.929l-.193-1.065a2.262,2.262,0,0,0-2.227-1.858h-2.089a2.263,2.263,0,0,0-2.227,1.858l-.193,1.065a1.256,1.256,0,0,1-.773.938,1.241,1.241,0,0,1-1.2-.121l-.891-.616a2.26,2.26,0,0,0-2.887.26l-1.479,1.478a2.263,2.263,0,0,0-.26,2.888l.617.889a1.259,1.259,0,0,1,.111,1.222,1.243,1.243,0,0,1-.929.751l-1.065.194a2.261,2.261,0,0,0-1.857,2.226v2.09a2.261,2.261,0,0,0,1.858,2.226l1.064.193a1.259,1.259,0,0,1,.939.773,1.247,1.247,0,0,1-.121,1.2l-.617.89a2.262,2.262,0,0,0,.26,2.888l1.479,1.478a2.263,2.263,0,0,0,2.888.261l.89-.616a1.255,1.255,0,0,1,1.221-.112,1.247,1.247,0,0,1,.75.929l.193,1.065a2.263,2.263,0,0,0,2.227,1.858h2.089a2.262,2.262,0,0,0,2.227-1.858l.193-1.065a1.257,1.257,0,0,1,.773-.938,1.243,1.243,0,0,1,1.2.121l.891.616a2.26,2.26,0,0,0,2.887-.261l1.479-1.478a2.262,2.262,0,0,0,.26-2.888l-.616-.89a1.256,1.256,0,0,1-.111-1.221,1.244,1.244,0,0,1,.928-.751l1.066-.194a2.26,2.26,0,0,0,1.857-2.226v-2.09A2.26,2.26,0,0,0-1939.7,546.305Zm-12.219,7.292a4.026,4.026,0,0,1-4.022-4.022,4.026,4.026,0,0,1,4.022-4.022,4.026,4.026,0,0,1,4.022,4.022A4.026,4.026,0,0,1-1951.924,553.6Z" transform="translate(1966.001 -535.5)"/>
</svg>
