<svg xmlns="http://www.w3.org/2000/svg" width="48" height="48" viewBox="0 0 48 48">
  <g id="Stockholm-icons-_-Communication-_-Mail" data-name="Stockholm-icons-/-Communication-/-Mail" transform="translate(-484 -4426)">
    <rect id="bound" width="48" height="48" transform="translate(484 4426)" fill="none"/>
    <path id="Combined-Shape" d="M494,4438h28a4,4,0,0,1,4,4v18a4,4,0,0,1-4,4H494a4,4,0,0,1-4-4v-18A4,4,0,0,1,494,4438Zm26.289,3.679L508,4448.3l-12.289-6.617a1.5,1.5,0,1,0-1.422,2.642l13,7a1.5,1.5,0,0,0,1.422,0l13-7a1.5,1.5,0,1,0-1.422-2.642Z"/>
  </g>
</svg>
