<svg xmlns="http://www.w3.org/2000/svg" width="26.098" height="26.099" viewBox="0 0 26.098 26.099">
  <g id="Stockholm-icons-_-Communication-_-Chat-smile" data-name="Stockholm-icons-/-Communication-/-Chat-smile" transform="translate(4384.125 1031.083)">
    <path id="Path-75" d="M-4381.515-888.625l-2.61,8.482,8.482-2.61Z" transform="translate(0 -125.494)" style="isolation: isolate"/>
    <path id="Combined-Shape" d="M-4371.076-1031.083a13.049,13.049,0,0,1,13.049,13.049,13.049,13.049,0,0,1-13.049,13.049,13.049,13.049,0,0,1-13.049-13.049A13.049,13.049,0,0,1-4371.076-1031.083Zm-7.61,15.078c1.97,2.955,4.539,4.5,7.61,4.5s5.641-1.541,7.61-4.5a1.3,1.3,0,0,0-.361-1.81,1.3,1.3,0,0,0-1.81.362c-1.51,2.265-3.292,3.334-5.439,3.334s-3.929-1.069-5.439-3.334a1.3,1.3,0,0,0-1.81-.362A1.3,1.3,0,0,0-4378.686-1016Z"/>
  </g>
</svg>
