<svg id="icon-casa-preto" xmlns="http://www.w3.org/2000/svg" width="27.93" height="27.7" viewBox="0 0 27.93 27.7">
  <g id="Group_394" data-name="Group 394" transform="translate(0 0)">
    <g id="Group_393" data-name="Group 393">
      <path id="Combined-Shape" d="M820.485,1282.926l11.67-7.348a1.515,1.515,0,0,1,1.618,0l11.67,7.348a3.22,3.22,0,0,1,1.485,2.728v14.193a3.151,3.151,0,0,1-3.1,3.2H822.1a3.151,3.151,0,0,1-3.1-3.2h0v-14.193A3.219,3.219,0,0,1,820.485,1282.926Z" transform="translate(-819 -1275.344)" fill="#e4e4e4" opacity="0.3" style="isolation: isolate"/>
      <path id="Shape" d="M839.679,1292c-1.178,0-2.555,1.335-3.293,2.2-.738-.86-2.115-2.2-3.293-2.2-2.085,0-3.293,1.626-3.293,3.7q0,3.439,6.586,7.281,6.586-3.842,6.586-7.135C842.972,1293.772,841.763,1292,839.679,1292Z" transform="translate(-822.421 -1279.705)" fill="#e4e4e4" opacity="0.3" style="isolation: isolate"/>
    </g>
  </g>
  <g id="Group_393-2" data-name="Group 393">
    <path id="Combined-Shape-2" data-name="Combined-Shape" d="M820.485,1282.926l11.67-7.348a1.515,1.515,0,0,1,1.618,0l11.67,7.348a3.22,3.22,0,0,1,1.485,2.728v14.193a3.151,3.151,0,0,1-3.1,3.2H822.1a3.151,3.151,0,0,1-3.1-3.2h0v-14.193A3.219,3.219,0,0,1,820.485,1282.926Z" transform="translate(-819 -1275.344)" opacity="0.3" style="isolation: isolate"/>
    <path id="Shape-2" data-name="Shape" d="M839.679,1292c-1.178,0-2.555,1.335-3.293,2.2-.738-.86-2.115-2.2-3.293-2.2-2.085,0-3.293,1.626-3.293,3.7q0,3.439,6.586,7.281,6.586-3.842,6.586-7.135C842.972,1293.772,841.763,1292,839.679,1292Z" transform="translate(-822.421 -1279.705)" opacity="0.3" style="isolation: isolate"/>
  </g>
</svg>
