<svg xmlns="http://www.w3.org/2000/svg" width="31.5" height="35" viewBox="0 0 31.5 35">
  <g id="Group_2329" data-name="Group 2329" transform="translate(-1219 -401)">
    <g id="Group_2123" data-name="Group 2123" transform="translate(1219 401)">
      <path id="Combined-Shape" d="M167.75,3909.25v7A1.75,1.75,0,0,1,166,3918H155.5a1.75,1.75,0,0,1-1.75-1.75v-7H148.5a3.5,3.5,0,0,1-3.5-3.5V3893.5a3.5,3.5,0,0,1,3.5-3.5H173a3.5,3.5,0,0,1,3.5,3.5v12.25a3.5,3.5,0,0,1-3.5,3.5Zm2.625-10.5a2.625,2.625,0,1,0-2.625-2.625A2.625,2.625,0,0,0,170.375,3898.75ZM157.25,3904v10.5h7V3904Z" transform="translate(-145 -3883)"/>
      <path id="Combined-Shape-Copy" d="M156.75,3882h10.5a1.75,1.75,0,0,1,1.75,1.75h0a1.75,1.75,0,0,1-1.75,1.75h-10.5a1.75,1.75,0,0,1-1.75-1.75h0A1.75,1.75,0,0,1,156.75,3882Z" transform="translate(-146.25 -3882)" opacity="0.3" style="isolation: isolate"/>
    </g>
  </g>
</svg>
