<svg xmlns="http://www.w3.org/2000/svg" width="28.5" height="21.375" viewBox="0 0 28.5 21.375">
  <g id="Group_2326" data-name="Group 2326" transform="translate(-167 -4594)">
    <path id="Combined-Shape" d="M192.438,4607.063A3.563,3.563,0,1,1,196,4603.5,3.562,3.562,0,0,1,192.438,4607.063ZM181.75,4603.5a4.75,4.75,0,1,1,4.75-4.75A4.75,4.75,0,0,1,181.75,4603.5Z" transform="translate(-4.063)" opacity="0.3" style="isolation: isolate"/>
    <path id="Combined-Shape-2" data-name="Combined-Shape" d="M187.9,4616.375c4.045.045,7.348,2.09,7.6,6.412a.605.605,0,0,1-.644.712h-4.579A11.822,11.822,0,0,0,187.9,4616.375Zm-20.9,6.173c.461-5.667,5.061-8.549,10.667-8.549,5.685,0,10.357,2.723,10.7,8.55a.816.816,0,0,1-.892.95H167.864A1.314,1.314,0,0,1,167,4622.549Z" transform="translate(0 -8.125)"/>
  </g>
</svg>
