<?xml version="1.0" encoding="utf-8"?>
<!-- Generator: Adobe Illustrator 25.0.0, SVG Export Plug-In . SVG Version: 6.00 Build 0)  -->
<svg version="1.1" id="Layer_1" xmlns="http://www.w3.org/2000/svg" xmlns:xlink="http://www.w3.org/1999/xlink" x="0px" y="0px"
	 viewBox="0 0 512 512" style="enable-background:new 0 0 512 512;" xml:space="preserve">
<style type="text/css">
	.st0{fill:#B3B3B3;}
	.st1{fill:#393839;}
</style>
<g>
	<g>
		<path class="st0" d="M256,0C114.8,0,0,114.8,0,256s114.8,256,256,256s256-114.8,256-256S397.2,0,256,0z M389.6,272.7H272.7v116.9
			c0,9.2-7.5,16.7-16.7,16.7s-16.7-7.5-16.7-16.7V272.7H122.4c-9.2,0-16.7-7.5-16.7-16.7c0-9.2,7.5-16.7,16.7-16.7h116.9V122.4
			c0-9.2,7.5-16.7,16.7-16.7c9.2,0,16.7,7.5,16.7,16.7v116.9h116.9c9.2,0,16.7,7.5,16.7,16.7C406.3,265.2,398.8,272.7,389.6,272.7z"
			/>
	</g>
</g>
<path class="st1" d="M389.6,272.7H272.7v116.9c0,9.2-7.5,16.7-16.7,16.7s-16.7-7.5-16.7-16.7V272.7H122.4c-9.2,0-16.7-7.5-16.7-16.7
	c0-9.2,7.5-16.7,16.7-16.7h116.9V122.4c0-9.2,7.5-16.7,16.7-16.7c9.2,0,16.7,7.5,16.7,16.7v116.9h116.9c9.2,0,16.7,7.5,16.7,16.7
	C406.3,265.2,398.8,272.7,389.6,272.7z"/>
</svg>
