<svg xmlns="http://www.w3.org/2000/svg" width="30.988" height="23.241" viewBox="0 0 30.988 23.241">
  <g id="Group_2323" data-name="Group 2323" transform="translate(-705 -5029)">
    <path id="Combined-Shape" d="M735.988,5047v6.2a3.1,3.1,0,0,1-3.1,3.1H708.1a3.1,3.1,0,0,1-3.1-3.1V5047h6.63l.844,2.529a3.1,3.1,0,0,0,2.94,2.119h10.321a3.1,3.1,0,0,0,2.772-1.712l1.467-2.936Z" transform="translate(0 -4.055)"/>
    <path id="Path" d="M706.125,5039.846l5.212-9.266a3.1,3.1,0,0,1,2.7-1.58h13.419a3.1,3.1,0,0,1,2.7,1.58l5.212,9.266h-5.143a3.1,3.1,0,0,0-2.772,1.713l-1.467,2.936H715.667l-.844-2.529a3.1,3.1,0,0,0-2.94-2.119Z" transform="translate(-0.253)" opacity="0.3" style="isolation: isolate"/>
  </g>
</svg>
