<svg xmlns="http://www.w3.org/2000/svg" width="28.139" height="33.021" viewBox="0 0 28.139 33.021">
  <path id="Path_411" data-name="Path 411" d="M47.757,47.709a9.512,9.512,0,0,0-8.045-9.393v-.572a1.509,1.509,0,0,0-1.169-1.5,1.475,1.475,0,0,0-1.778,1.443v.628a9.512,9.512,0,0,0-8.044,9.393c0,16.373-4.551,9.762-4.551,14.64a.786.786,0,0,0,.786.786H51.522a.786.786,0,0,0,.786-.786v-.225C52.308,57.912,47.757,63.664,47.757,47.709ZM38.238,69.236a4.938,4.938,0,0,0,4.926-4.628H33.312A4.939,4.939,0,0,0,38.238,69.236Z" transform="translate(-24.17 -36.215)" fill="#151515"/>
</svg>
