<svg xmlns="http://www.w3.org/2000/svg" width="35" height="35" viewBox="0 0 35 35">
  <g id="Stockholm-icons-_-Code-_-Warning-2" data-name="Stockholm-icons-/-Code-/-Warning-2" transform="translate(-568.67 -10660.525)">
    <rect id="bound" width="35" height="35" transform="translate(568.67 10660.525)" fill="none"/>
    <path id="Path-117" d="M586.465,10669.7l-11.887,21.4a1.425,1.425,0,0,0,1.245,2.117h24.962a1.425,1.425,0,0,0,1.216-2.169l-13.075-21.4a1.425,1.425,0,0,0-2.462.053Z" transform="translate(-1.557 -2.292)" opacity="0.3" style="isolation: isolate"/>
    <path id="Rectangle-9" d="M592.425,10679h0a1.425,1.425,0,0,1,1.425,1.425v7.124a1.425,1.425,0,0,1-1.425,1.426h0a1.425,1.425,0,0,1-1.425-1.426v-7.124A1.425,1.425,0,0,1,592.425,10679Z" transform="translate(-6.33 -5.176)"/>
    <path id="Rectangle-9-Copy" d="M592.425,10695h0a1.425,1.425,0,0,1,1.425,1.425h0a1.425,1.425,0,0,1-1.425,1.425h0a1.425,1.425,0,0,1-1.425-1.425h0A1.425,1.425,0,0,1,592.425,10695Z" transform="translate(-6.33 -9.777)"/>
  </g>
</svg>
