<svg xmlns="http://www.w3.org/2000/svg" width="25.5" height="25.5" viewBox="0 0 25.5 25.5">
  <g id="Group_2324" data-name="Group 2324" transform="translate(2825.145 -525.855)">
    <path id="Mask" d="M-2764.16,537.188a5.667,5.667,0,0,1-5.667-5.667,5.667,5.667,0,0,1,5.667-5.667,5.667,5.667,0,0,1,5.667,5.667A5.667,5.667,0,0,1-2764.16,537.188Z" transform="translate(-48.234)" fill="#151515"/>
    <path id="Mask-Copy" d="M-2825.143,646.69c.549-6.761,6.037-10.2,12.725-10.2,6.783,0,12.356,3.249,12.771,10.2a.973.973,0,0,1-1.064,1.133h-23.4A1.568,1.568,0,0,1-2825.143,646.69Z" transform="translate(0 -96.469)" fill="#151515"/>
  </g>
</svg>
