<svg xmlns="http://www.w3.org/2000/svg" width="32" height="32" viewBox="0 0 32 32">
  <g id="Stockholm-icons-_-Shopping-_-Chart-bar_2" data-name="Stockholm-icons-/-Shopping-/-Chart-bar#2" transform="translate(-345.928 -7185.928)">
    <rect id="bound" width="32" height="32" transform="translate(345.929 7185.928)" fill="none"/>
    <path id="Rectangle-62-Copy" d="M381.991,7194h0a1.991,1.991,0,0,1,1.991,1.991v13.273a1.991,1.991,0,0,1-1.991,1.991h0a1.991,1.991,0,0,1-1.991-1.991v-13.273A1.991,1.991,0,0,1,381.991,7194Z" transform="translate(-11.435 -2.69)" opacity="0.3" style="isolation: isolate"/>
    <path id="Rectangle-62-Copy-2" d="M371.991,7204h0a1.991,1.991,0,0,1,1.991,1.991v6.637a1.991,1.991,0,0,1-1.991,1.991h0a1.991,1.991,0,0,1-1.991-1.991v-6.637A1.991,1.991,0,0,1,371.991,7204Z" transform="translate(-8.072 -6.053)" opacity="0.3" style="isolation: isolate"/>
    <path id="Path-95" d="M354.655,7213.237h19.91a1.327,1.327,0,0,1,0,2.655H353.327a1.327,1.327,0,0,1-1.327-1.327v-21.238a1.327,1.327,0,0,1,2.655,0Z" transform="translate(-2.018 -2.018)"/>
    <path id="Rectangle-62-Copy-4" d="M361.991,7208h0a1.991,1.991,0,0,1,1.991,1.991v3.982a1.991,1.991,0,0,1-1.991,1.991h0a1.991,1.991,0,0,1-1.991-1.991v-3.982A1.991,1.991,0,0,1,361.991,7208Z" transform="translate(-4.709 -7.399)" opacity="0.3" style="isolation: isolate"/>
  </g>
</svg>
