<svg xmlns="http://www.w3.org/2000/svg" width="27.004" height="30.129" viewBox="0 0 27.004 30.129">
  <g id="_4" data-name="4" transform="translate(-2773.99 842.37)">
    <path id="Path_16" data-name="Path 16" d="M2800.994-829.248c0,.01,0,.019,0,.03s0,.023,0,.034l0,.048c0,.019,0,.038,0,.056s-.008.055-.014.083a.313.313,0,0,1-.009.049c-.007.03-.014.06-.023.091,0,.012-.006.024-.01.037-.012.034-.024.066-.037.1a.188.188,0,0,0-.009.022c-.016.037-.034.074-.053.11a.019.019,0,0,0,0,.007,1.385,1.385,0,0,1-.289.37l-1.582,1.434-2.11,1.913-1.326,1.2a1.388,1.388,0,0,1-.937.362,1.4,1.4,0,0,1-1.034-.458,1.4,1.4,0,0,1,.1-1.969l2.346-2.127H2788.9v9.312h7.544a.372.372,0,0,0,.4-.328v-5.116l2.11-1.913v7.431a2.524,2.524,0,0,1-2.506,2.07H2788.9v2.2a1.954,1.954,0,0,1-1.95,1.954,1.957,1.957,0,0,1-.663-.116l-11.008-3.959a1.956,1.956,0,0,1-1.292-1.837v-22.262a1.954,1.954,0,0,1,1.927-1.953l.042,0h20.489a2.525,2.525,0,0,1,2.506,2.071v7.7l-2.11-1.913V-839.9a.373.373,0,0,0-.4-.329h-14.209l5.374,1.932a1.957,1.957,0,0,1,1.291,1.837v5.812l7.083,0-2.344-2.124a1.4,1.4,0,0,1-.1-1.971,1.4,1.4,0,0,1,1.971-.1l1.326,1.2,2.11,1.913,1.582,1.435a1.379,1.379,0,0,1,.289.368.02.02,0,0,0,0,.008c.019.036.036.071.052.108a.181.181,0,0,1,.009.024c.013.033.025.066.037.1l.011.038c.009.029.016.058.022.089a.376.376,0,0,1,.009.05c.006.027.01.056.014.084s0,.037,0,.056l0,.048c0,.011,0,.022,0,.034S2800.994-829.259,2800.994-829.248Z" transform="translate(0 0)" fill="#151515"/>
  </g>
</svg>
