<svg id="Stockholm-icons-_-General-_-Smile" data-name="Stockholm-icons-/-General-/-Smile" xmlns="http://www.w3.org/2000/svg" width="49.648" height="49.648" viewBox="0 0 49.648 49.648">
  <path fill="#c7c7c7" id="Combined-Shape" d="M948.824,465h0a24.824,24.824,0,0,1,24.824,24.824h0a24.824,24.824,0,0,1-24.824,24.824h0A24.824,24.824,0,0,1,924,489.824h0A24.824,24.824,0,0,1,948.824,465Z" transform="translate(-924 -465)" opacity="0.6" style="isolation: isolate"/>
  <path fill="#fff" id="Path-56" d="M932.417,490.859a2.482,2.482,0,0,1,4.131-2.753c2.872,4.308,6.262,6.341,10.347,6.341s7.474-2.033,10.347-6.341a2.482,2.482,0,0,1,4.131,2.753c-3.747,5.621-8.633,8.553-14.478,8.553S936.164,496.48,932.417,490.859Z" transform="translate(-922.07 -459.693)"/>
</svg>
